<?xml version="1.0" standalone="no"?>
<!DOCTYPE svg PUBLIC "-//W3C//DTD SVG 20010904//EN"
 "http://www.w3.org/TR/2001/REC-SVG-20010904/DTD/svg10.dtd">
<svg version="1.0" xmlns="http://www.w3.org/2000/svg"
 width="70px"  viewBox="0 0 709.000000 831.000000"
 preserveAspectRatio="xMidYMid meet">

<g transform="translate(0.000000,831.000000) scale(0.100000,-0.100000)"
fill="#DB261C" stroke="none">
<path d="M3092 8227 c-9 -11 -12 -551 -12 -2279 -1 -1245 2 -2272 6 -2281 5
-15 151 -16 1817 -19 997 -2 1856 -1 1910 2 l99 5 -1 1125 c-1 619 -6 1209
-11 1313 -10 194 -41 381 -97 587 -42 159 -149 414 -223 534 -22 37 -40 68
-40 71 0 11 -79 128 -149 219 -176 231 -389 417 -621 544 -116 63 -314 130
-505 170 -104 22 -2156 30 -2173 9z m2168 -761 c203 -33 391 -132 596 -315
124 -109 178 -169 247 -274 149 -225 242 -438 310 -707 31 -125 31 -125 32
-405 0 -261 -2 -287 -23 -375 -47 -188 -103 -350 -177 -505 -88 -183 -263
-436 -367 -531 -40 -36 -139 -104 -183 -127 -142 -70 -352 -52 -441 39 -87 90
-123 195 -189 544 -25 133 -61 230 -102 275 -10 11 -50 47 -88 80 -159 136
-188 177 -183 258 3 49 5 52 32 55 15 2 76 -6 135 -18 110 -23 137 -23 289 1
88 14 83 15 312 -36 113 -26 412 -76 418 -71 4 5 -301 156 -313 156 -2 0 -74
34 -160 76 -142 68 -162 81 -218 141 -131 140 -165 169 -231 202 -58 28 -79
33 -141 34 -90 0 -155 -28 -231 -101 -94 -90 -128 -208 -105 -362 16 -102 57
-184 198 -396 149 -225 164 -252 198 -344 23 -63 27 -92 27 -181 1 -93 -3
-113 -24 -161 -46 -100 -134 -172 -258 -214 -63 -21 -180 -23 -250 -5 -94 25
-245 118 -332 204 -98 96 -279 361 -340 496 -51 113 -134 371 -160 501 -19 97
-15 582 6 723 38 258 193 586 385 817 77 93 269 273 349 328 76 52 222 125
321 161 66 25 144 40 281 55 63 7 293 -4 380 -18z m-346 -1706 c14 -5 30 -18
36 -29 8 -17 7 -24 -10 -41 -11 -11 -27 -20 -36 -20 -22 0 -97 76 -89 90 8 13
66 13 99 0z"/>
<path d="M4824 7315 c-150 -23 -336 -94 -487 -186 -83 -50 -128 -88 -237 -198
-194 -196 -262 -303 -352 -556 -69 -193 -73 -227 -72 -610 1 -411 6 -447 119
-755 93 -256 314 -537 491 -626 76 -37 83 -39 174 -38 70 0 111 6 158 23 143
49 177 94 170 222 -6 100 -43 176 -199 414 -208 316 -242 396 -243 585 -1 116
1 130 28 195 41 97 65 133 130 192 112 103 251 147 392 125 136 -21 196 -65
364 -260 52 -61 88 -85 260 -174 281 -146 610 -336 658 -380 26 -26 27 -31 5
-54 -15 -15 -35 -16 -173 -11 -85 3 -187 12 -226 21 -105 23 -331 54 -479 66
-135 11 -308 1 -328 -19 -16 -16 3 -48 70 -121 33 -36 68 -80 78 -99 28 -56
53 -155 75 -303 38 -255 85 -381 153 -409 45 -20 227 -17 294 4 134 41 273
190 412 441 123 223 183 376 237 611 16 71 37 459 29 530 -16 126 -49 297 -71
365 -36 109 -175 384 -235 465 -81 108 -262 283 -366 352 -142 95 -298 164
-428 189 -85 17 -291 17 -401 -1z"/>
<path d="M1266 6825 c-54 -8 -122 -21 -150 -30 -206 -65 -534 -313 -670 -509
-62 -87 -167 -290 -206 -398 -46 -124 -79 -270 -91 -393 -11 -111 -21 -1716
-11 -1788 l5 -37 1314 2 1314 3 -1 1570 c0 907 -4 1573 -9 1578 -5 5 -314 11
-703 13 -561 3 -712 1 -792 -11z m417 -799 c121 -38 246 -135 377 -293 115
-140 189 -305 212 -475 13 -100 5 -331 -16 -443 -59 -316 -294 -599 -601 -721
-64 -26 -81 -28 -205 -28 -154 0 -196 11 -354 93 -98 50 -227 163 -298 258
-65 88 -144 251 -167 342 -18 72 -21 115 -21 292 0 187 2 216 24 300 30 116
63 189 134 299 79 121 114 162 213 245 96 80 189 131 265 145 73 14 379 3 437
-14z"/>
<path d="M1474 5930 c-27 -11 -67 -74 -62 -97 6 -30 38 -26 92 10 47 32 55 35
98 28 55 -9 78 -25 78 -56 0 -39 20 -82 44 -95 37 -19 70 -96 74 -170 l4 -65
-66 -53 c-55 -44 -68 -60 -78 -98 -20 -74 -60 -81 -97 -18 -26 43 -69 47 -106
9 -30 -29 -32 -63 -5 -114 23 -46 75 -71 148 -71 92 -1 222 -47 259 -92 18
-21 35 -137 27 -182 -10 -61 -39 -111 -122 -211 -90 -108 -118 -165 -133 -271
-19 -139 -22 -148 -52 -158 -21 -8 -31 -6 -42 5 -8 7 -31 86 -50 174 -88 385
-100 422 -162 498 -28 35 -29 72 -3 117 47 80 53 101 35 120 -33 37 -119 74
-185 79 l-65 6 -16 73 c-10 40 -27 127 -38 193 -27 152 -40 179 -85 179 -75 0
-184 -141 -228 -295 -21 -72 -23 -101 -23 -290 1 -186 3 -219 23 -290 84 -300
305 -534 549 -581 100 -19 294 -19 354 0 286 90 492 381 539 761 12 95 1 265
-22 355 -18 69 -102 242 -146 302 -67 90 -194 206 -256 233 -121 53 -243 82
-282 65z"/>
<path d="M3091 3281 c-11 -7 -13 -267 -12 -1612 1 -882 5 -1607 9 -1611 4 -3
327 -8 717 -9 775 -3 806 -2 963 53 191 66 349 165 497 312 134 133 182 193
245 301 81 138 124 230 163 345 48 144 54 167 72 309 13 107 16 253 15 1000
-1 483 -6 885 -11 898 l-9 23 -1317 0 c-725 0 -1324 -4 -1332 -9z m1909 -771
c12 -8 14 -37 12 -177 -2 -92 -6 -178 -9 -190 -6 -26 -20 -27 -136 -16 -67 6
-67 6 -77 42 -5 20 -11 50 -12 66 l-3 30 -352 3 c-410 3 -390 10 -295 -104
112 -133 393 -486 399 -500 3 -9 -53 -83 -144 -192 -219 -261 -313 -379 -313
-394 0 -36 18 -38 366 -38 384 0 354 -7 354 79 0 26 5 52 12 59 8 8 45 12 100
12 86 0 89 -1 98 -26 11 -28 13 -230 4 -311 l-7 -53 -679 0 -680 0 4 112 c3
81 9 122 21 145 19 36 129 175 216 273 194 219 250 291 250 325 1 31 0 32
-244 325 -60 72 -129 155 -153 183 -73 87 -85 120 -90 229 -2 54 -2 104 2 113
5 13 84 15 673 15 402 0 674 -4 683 -10z"/>
<path d="M157 3263 c-12 -11 -8 -1594 3 -1701 15 -137 47 -307 74 -399 79
-260 218 -506 379 -668 196 -196 395 -308 645 -360 62 -13 188 -15 793 -15
l719 0 0 1569 c0 1421 -1 1569 -16 1575 -22 8 -2589 8 -2597 -1z m1489 -508
c6 -8 14 -32 18 -53 7 -41 26 -68 68 -95 41 -26 55 -21 94 33 20 28 44 50 54
50 52 0 139 -60 160 -110 11 -26 10 -33 -4 -49 -9 -10 -16 -35 -16 -60 0 -98
80 -150 155 -101 17 11 33 20 37 20 8 0 85 -158 93 -193 5 -18 -3 -31 -39 -64
-53 -48 -58 -80 -27 -148 14 -31 30 -46 74 -69 31 -15 59 -37 63 -48 8 -25 -4
-159 -16 -178 -4 -7 -28 -23 -52 -34 -32 -16 -49 -32 -65 -66 -34 -70 -30
-100 18 -150 23 -23 41 -52 41 -64 0 -26 -72 -177 -87 -182 -6 -3 -25 2 -41
11 -99 51 -183 -38 -148 -156 15 -49 14 -52 -7 -84 -24 -35 -113 -95 -141 -95
-10 0 -21 14 -27 33 -7 19 -21 44 -32 56 -18 19 -28 21 -63 16 -53 -8 -83 -41
-92 -102 -14 -96 -13 -96 -102 -88 -71 7 -112 24 -112 46 0 5 -9 34 -21 65
-18 46 -27 58 -56 71 -50 20 -77 10 -113 -42 -41 -60 -56 -59 -152 13 -43 32
-48 40 -48 75 0 21 7 51 15 68 15 29 15 32 -15 83 -45 80 -52 84 -106 58 -24
-12 -53 -22 -64 -22 -33 0 -70 74 -86 171 -5 32 -2 40 31 73 35 35 37 40 30
84 -7 56 -28 88 -80 123 -45 31 -65 78 -68 158 -1 48 2 56 31 82 18 16 41 29
52 29 24 0 45 30 66 92 17 54 12 71 -39 125 -26 28 -29 37 -25 76 3 25 20 69
39 101 30 50 37 56 66 56 19 0 42 -5 52 -12 26 -16 75 6 108 49 25 33 25 34 9
76 -29 76 -23 99 40 156 31 28 67 54 80 57 31 8 60 -16 67 -56 5 -23 13 -30
41 -35 76 -15 136 32 136 105 0 17 5 41 11 52 10 19 17 20 98 15 61 -5 89 -11
97 -22z"/>
<path d="M1452 2166 c-137 -45 -233 -202 -233 -381 2 -330 308 -512 526 -313
176 161 179 449 5 625 -69 70 -201 100 -298 69z"/>
</g>
</svg>
